# xmcd
#
# Track frame offsets:
#	150
#	13200
#	28478
#	39351
#	52121
#	68210
#	86678
#	100303
#	117883
#	135591
#	149145
#
# Disc length: 2264 seconds
# Revision: 1
# Processed by: cddbd v1.5.2PL0 Copyright (c) Steve Scherf et al.
# Submitted via: dBpowerAMP V12.0
#
DISCID=a508d60b
DTITLE=David Thom - That Old Familiar
DYEAR=2011
DGENRE=Country
TTITLE0=California's Burning
TTITLE1=Don't Neglect the Rose
TTITLE2=Home Is Where the Heart Is
TTITLE3=That Old Familiar
TTITLE4=Fifth Third
TTITLE5=The Little White Church
TTITLE6=When I Hear Your Name
TTITLE7=Two Highways
TTITLE8=Lucille
TTITLE9=Windy City
TTITLE10=My Way of Saying Goodbye
EXTD=
EXTT0=
EXTT1=
EXTT2=
EXTT3=
EXTT4=
EXTT5=
EXTT6=
EXTT7=
EXTT8=
EXTT9=
EXTT10=
PLAYORDER=
